<?xml version="1.0" encoding="utf-8"?>
<!-- Generator: Adobe Illustrator 27.7.0, SVG Export Plug-In . SVG Version: 6.00 Build 0)  -->
<svg version="1.1" id="Layer_1" xmlns="http://www.w3.org/2000/svg" xmlns:xlink="http://www.w3.org/1999/xlink" x="0px" y="0px"
	 viewBox="0 0 378 378" style="enable-background:new 0 0 378 378;" xml:space="preserve">
<style type="text/css">
	.st0{fill:none;}
	.st1{fill:#303030;}
	.st2{fill:#0E0E0E;stroke:#303030;stroke-width:3.164;stroke-miterlimit:9.04;}
	.st3{fill:none;stroke:#303030;stroke-width:3.164;stroke-miterlimit:9.04;}
	.st4{fill:#0E0E0E;stroke:#303030;stroke-width:2.2242;stroke-miterlimit:6.3548;}
	.st5{fill:none;stroke:#303030;stroke-width:2.2242;stroke-miterlimit:6.3548;}
	.st6{fill:#0E0E0E;stroke:#303030;stroke-width:2.4312;stroke-miterlimit:6.9463;}
	.st7{fill:none;stroke:#303030;stroke-width:2.4312;stroke-miterlimit:6.9463;}
	.st8{fill:#0E0E0E;stroke:#303030;stroke-width:2.7882;stroke-miterlimit:7.9664;}
	.st9{fill:none;stroke:#303030;stroke-width:2.7882;stroke-miterlimit:7.9664;}
	.st10{fill:#0E0E0E;stroke:#303030;stroke-width:2.8331;stroke-miterlimit:8.0945;}
	.st11{fill:none;stroke:#303030;stroke-width:2.8331;stroke-miterlimit:8.0945;}
</style>
<path class="st0" d="z"/>
<g transform="scale(1.4800000000000002)">
	<g>
		<g transform="translate(-128,-128)">
			<polygon class="st1" points="95.3,99 73.3,96.2 74.2,90.6 94.5,93.7 			"/>
		</g>
	</g>
	<g>
		<g transform="translate(128,-128)">
			<polygon class="st1" points="95.3,99 73.3,96.2 74.2,90.6 94.5,93.7 			"/>
		</g>
	</g>
	<g>
		<g transform="translate(-128,-128)">
			<path class="st1" d="M38.1,224.5c0,0-0.1,0-0.1,0c-2.9,0-5.7-1.2-7.7-3.3c-4.2-4.4-4.1-11.3,0.2-15.6c2.1-2.1,4.9-3.2,7.8-3.1
				c2.9,0,5.7,1.2,7.7,3.3c4.2,4.4,4.1,11.3-0.2,15.6C43.7,223.4,41,224.5,38.1,224.5z M38.1,207.5c-1.6,0-3,0.6-4.2,1.7
				c-2.4,2.3-2.4,6.1-0.1,8.5c1.1,1.1,2.6,1.8,4.2,1.8c1.6,0,3.1-0.6,4.2-1.7c2.4-2.3,2.4-6.1,0.1-8.5l0,0
				C41.3,208.2,39.8,207.5,38.1,207.5C38.2,207.5,38.1,207.5,38.1,207.5z"/>
		</g>
	</g>
	<g>
		<g transform="translate(128,-128)">
			<path class="st1" d="M38.1,224.5c0,0-0.1,0-0.1,0c-2.9,0-5.7-1.2-7.7-3.3c-4.2-4.4-4.1-11.3,0.2-15.6c2.1-2.1,4.9-3.2,7.8-3.1
				c2.9,0,5.7,1.2,7.7,3.3c4.2,4.4,4.1,11.3-0.2,15.6C43.7,223.4,41,224.5,38.1,224.5z M38.1,207.5c-1.6,0-3,0.6-4.2,1.7
				c-2.4,2.3-2.4,6.1-0.1,8.5c1.1,1.1,2.6,1.8,4.2,1.8c1.6,0,3.1-0.6,4.2-1.7c2.4-2.3,2.4-6.1,0.1-8.5l0,0
				C41.3,208.2,39.8,207.5,38.1,207.5C38.2,207.5,38.1,207.5,38.1,207.5z"/>
		</g>
	</g>
	<g>
		<g transform="translate(-128,-128)">
			
				<ellipse transform="matrix(0.7249 -0.6888 0.6888 0.7249 31.7822 174.5887)" class="st1" cx="234.5" cy="47.5" rx="4.4" ry="4.4"/>
		</g>
	</g>
	<g>
		<g transform="translate(128,-128)">
			
				<ellipse transform="matrix(0.7249 -0.6888 0.6888 0.7249 31.7822 174.5888)" class="st1" cx="234.5" cy="47.5" rx="4.4" ry="4.4"/>
		</g>
	</g>
	<g>
		<g transform="translate(-128,-128)">
			<path class="st1" d="M156.3,159.2l-1.7-5.1c3.9-1.3,6-5.6,4.7-9.5c-0.6-1.9-2-3.4-3.8-4.3c-1.8-0.9-3.8-1-5.7-0.4l-1.7-5.1
				c3.3-1.1,6.7-0.9,9.8,0.6c3.1,1.5,5.4,4.1,6.5,7.4C166.6,149.6,163,156.9,156.3,159.2z"/>
		</g>
	</g>
	<g>
		<g transform="translate(128,-128)">
			<path class="st1" d="M156.3,159.2l-1.7-5.1c3.9-1.3,6-5.6,4.7-9.5c-0.6-1.9-2-3.4-3.8-4.3c-1.8-0.9-3.8-1-5.7-0.4l-1.7-5.1
				c3.3-1.1,6.7-0.9,9.8,0.6c3.1,1.5,5.4,4.1,6.5,7.4C166.6,149.6,163,156.9,156.3,159.2z"/>
		</g>
	</g>
	<g>
		<g transform="translate(-128,-128)">
			
				<ellipse transform="matrix(0.7249 -0.6888 0.6888 0.7249 -74.7826 111.7226)" class="st1" cx="102.5" cy="149.5" rx="4.4" ry="4.4"/>
		</g>
	</g>
	<g>
		<g transform="translate(128,-128)">
			
				<ellipse transform="matrix(0.7249 -0.6888 0.6888 0.7249 -74.7826 111.7226)" class="st1" cx="102.5" cy="149.5" rx="4.4" ry="4.4"/>
		</g>
	</g>
	<g>
		<g transform="translate(-128,-128)">
			<polygon class="st1" points="231.5,249.2 247.1,235.9 252.9,238.8 235.2,253.5 			"/>
		</g>
	</g>
	<g>
		<g transform="translate(128,-128)">
			<polygon class="st1" points="231.5,249.2 247.1,235.9 252.9,238.8 235.2,253.5 			"/>
		</g>
	</g>
	<g>
		<g transform="translate(-128,-128)">
			<polygon class="st1" points="115.4,22 104,43 100.2,36.9 110.4,19.1 			"/>
		</g>
	</g>
	<g>
		<g transform="translate(128,-128)">
			<polygon class="st1" points="115.4,22 104,43 100.2,36.9 110.4,19.1 			"/>
		</g>
	</g>
	<g>
		<g transform="translate(-128,-128)">
			<path class="st1" d="M222.1,130.6c0,0-0.1,0-0.1,0c-2.6,0-5-1.1-6.8-2.9c-3.7-3.8-3.7-10,0.2-13.7c1.9-1.8,4.3-2.8,6.9-2.8
				c2.6,0,5,1.1,6.8,2.9c3.7,3.8,3.7,10-0.2,13.7C227.1,129.6,224.7,130.6,222.1,130.6z M222.1,115.6c-1.4,0-2.7,0.5-3.7,1.5
				c-2.1,2-2.1,5.4-0.1,7.5c1,1,2.3,1.6,3.7,1.6c1.4,0,2.7-0.5,3.7-1.5c2.1-2,2.1-5.4,0.1-7.5l0,0
				C224.9,116.2,223.6,115.6,222.1,115.6C222.1,115.6,222.1,115.6,222.1,115.6z"/>
		</g>
	</g>
	<g>
		<g transform="translate(128,-128)">
			<path class="st1" d="M222.1,130.6c0,0-0.1,0-0.1,0c-2.6,0-5-1.1-6.8-2.9c-3.7-3.8-3.7-10,0.2-13.7c1.9-1.8,4.3-2.8,6.9-2.8
				c2.6,0,5,1.1,6.8,2.9c3.7,3.8,3.7,10-0.2,13.7C227.1,129.6,224.7,130.6,222.1,130.6z M222.1,115.6c-1.4,0-2.7,0.5-3.7,1.5
				c-2.1,2-2.1,5.4-0.1,7.5c1,1,2.3,1.6,3.7,1.6c1.4,0,2.7-0.5,3.7-1.5c2.1-2,2.1-5.4,0.1-7.5l0,0
				C224.9,116.2,223.6,115.6,222.1,115.6C222.1,115.6,222.1,115.6,222.1,115.6z"/>
		</g>
	</g>
	<g>
		<g transform="translate(-128,-128)">
			<path class="st1" d="M184.5,10l-4,1.1c-0.8-3.1-4-5-7.2-4.2c-1.5,0.4-2.8,1.4-3.6,2.7c-0.8,1.4-1,2.9-0.6,4.4l-4,1.1
				c-0.7-2.6-0.3-5.3,1-7.6c1.3-2.3,3.5-4,6.1-4.6C177.6,1.5,183.1,4.7,184.5,10z"/>
		</g>
	</g>
	<g>
		<g transform="translate(128,-128)">
			<path class="st1" d="M184.5,10l-4,1.1c-0.8-3.1-4-5-7.2-4.2c-1.5,0.4-2.8,1.4-3.6,2.7c-0.8,1.4-1,2.9-0.6,4.4l-4,1.1
				c-0.7-2.6-0.3-5.3,1-7.6c1.3-2.3,3.5-4,6.1-4.6C177.6,1.5,183.1,4.7,184.5,10z"/>
		</g>
	</g>
	<g>
		<g transform="translate(-128,-128)">
			<g transform="matrix(0.9912 0.1325 -0.1325 0.9912 30.542 -14.083) translate(121.067,222.398) scale(0.6786666666666666)">
				<g transform="scale(0.9)">
					<g>
						<g id="id-0.5792736874971864">
							<g>
								<path class="st2" d="M33.9-23.2c0-2-1.3-3.7-3-4.4c-0.7-2.2-2.5-4-4.8-4.5c-0.5-3.1-3.2-5.4-6.4-5.4c-2.9,0-5.4,1.9-6.3,4.6
									c-0.8-0.3-1.6-0.5-2.5-0.5c-0.6,0-1.2,0.1-1.8,0.3c-1.1-2-3.3-3.4-5.8-3.4c-0.8,0-1.5,0.1-2.2,0.4c-1-2.2-3.3-3.8-5.9-3.8
									c-3.5,0-6.3,2.7-6.5,6.1c-0.9-0.4-1.9-0.7-2.9-0.7c-0.6,0-1.1,0.1-1.6,0.2c-1.2-1.4-3-2.3-4.9-2.3c-3.6,0-6.6,2.9-6.6,6.6
									c0,0.3,0,0.7,0.1,1c-1.4,0-2.7,0.5-3.8,1.3c-1.6,1.2-2.7,3.1-2.7,5.3c0,2.2,1,4.1,2.7,5.3c0.7,0.5,1.6,0.9,2.5,1.1l13.4,0
									L19-16l11.6,0c0.4-0.8,0.7-1.8,0.8-2.8C32.7-19.6,33.9-21.3,33.9-23.2z"/>
								<path class="st3" d="M-7.4-20.6c-1.9-1.9-1.8-5.5,0.2-7.3s5.6-1.5,7.3,0.6c1.2,1.5,1.1,4.1-0.3,5.5"/>
								<path class="st3" d="M1-25c0.9-1.5,2.8-2.2,4.5-1.7c1.6,0.5,2.9,2.2,2.8,3.9"/>
								<path class="st2" d="M26-32.1c-0.9,0-7.3-0.5-7.2,6"/>
							</g>
							<g>
								<path class="st2" d="M-13.4,40l-7,0c-1.5,0-2.7-1.1-2.9-2.6l-5.5-53.6l11.9,0L-13.4,40z"/>
								<polygon class="st2" points="-3.8,40 -13.4,40 -16.8,-16.2 -5,-16.2 								"/>
								<polygon class="st2" points="5.8,40 -3.8,40 -5,-16.2 6.9,-16.2 								"/>
								<polygon class="st2" points="15.3,40 5.8,40 6.9,-16.2 18.8,-16.2 								"/>
								<path class="st2" d="M22.3,40l-7,0l3.4-56.2l11.9,0l-5.5,53.6C25,38.9,23.8,40,22.3,40z"/>
								<path class="st2" d="M6.9,16.7l-12,0c-2.8,0-5-2.2-5-5l0-4.5c0-2.8,2.2-5,5-5l12,0c2.8,0,5,2.2,5,5l0,4.5
									C11.9,14.5,9.7,16.7,6.9,16.7z"/>
							</g>
						</g>
					</g>
				</g>
			</g>
		</g>
	</g>
	<g>
		<g transform="translate(128,-128)">
			<g transform="matrix(0.9912 0.1325 -0.1325 0.9912 30.542 -14.083) translate(121.067,222.398) scale(0.6786666666666666)">
				<g transform="scale(0.9)">
					<g>
						<g id="id-0.5792736874971864_00000050656009644356974560000009080843311820905135_">
							<g>
								<path class="st2" d="M33.9-23.2c0-2-1.3-3.7-3-4.4c-0.7-2.2-2.5-4-4.8-4.5c-0.5-3.1-3.2-5.4-6.4-5.4c-2.9,0-5.4,1.9-6.3,4.6
									c-0.8-0.3-1.6-0.5-2.5-0.5c-0.6,0-1.2,0.1-1.8,0.3c-1.1-2-3.3-3.4-5.8-3.4c-0.8,0-1.5,0.1-2.2,0.4c-1-2.2-3.3-3.8-5.9-3.8
									c-3.5,0-6.3,2.7-6.5,6.1c-0.9-0.4-1.9-0.7-2.9-0.7c-0.6,0-1.1,0.1-1.6,0.2c-1.2-1.4-3-2.3-4.9-2.3c-3.6,0-6.6,2.9-6.6,6.6
									c0,0.3,0,0.7,0.1,1c-1.4,0-2.7,0.5-3.8,1.3c-1.6,1.2-2.7,3.1-2.7,5.3s1,4.1,2.7,5.3c0.7,0.5,1.6,0.9,2.5,1.1l13.4,0L19-16
									l11.6,0c0.4-0.8,0.7-1.8,0.8-2.8C32.7-19.6,33.9-21.3,33.9-23.2z"/>
								<path class="st3" d="M-7.4-20.6c-1.9-1.9-1.8-5.5,0.2-7.3c2-1.8,5.6-1.5,7.3,0.6c1.2,1.5,1.1,4.1-0.3,5.5"/>
								<path class="st3" d="M1-25c0.9-1.5,2.8-2.2,4.5-1.7c1.6,0.5,2.9,2.2,2.8,3.9"/>
								<path class="st2" d="M26-32.1c-0.9,0-7.3-0.5-7.2,6"/>
							</g>
							<g>
								<path class="st2" d="M-13.4,40l-7,0c-1.5,0-2.7-1.1-2.9-2.6l-5.5-53.6l11.9,0L-13.4,40z"/>
								<polygon class="st2" points="-3.8,40 -13.4,40 -16.8,-16.2 -5,-16.2 								"/>
								<polygon class="st2" points="5.8,40 -3.8,40 -5,-16.2 6.9,-16.2 								"/>
								<polygon class="st2" points="15.3,40 5.8,40 6.9,-16.2 18.8,-16.2 								"/>
								<path class="st2" d="M22.3,40h-7l3.4-56.2l11.9,0l-5.5,53.6C25,38.9,23.8,40,22.3,40z"/>
								<path class="st2" d="M6.9,16.7l-12,0c-2.8,0-5-2.2-5-5l0-4.5c0-2.8,2.2-5,5-5l12,0c2.8,0,5,2.2,5,5l0,4.5
									C11.9,14.5,9.7,16.7,6.9,16.7z"/>
							</g>
						</g>
					</g>
				</g>
			</g>
		</g>
	</g>
	<g>
		<g transform="translate(-128,-128)">
			
				<g transform="matrix(-0.0456 0.999 -0.999 -0.0456 243.7065 -82.5047) translate(161.268,75.17099999999999) scale(0.47706666666666664)">
				<g transform="scale(0.9)">
					<g>
						<g id="id-0.5792736874971864_00000089560900041715196430000016888583436556808638_">
							<g>
								<path class="st4" d="M33.9-23.2c0-2-1.3-3.7-3-4.4c-0.7-2.2-2.5-4-4.8-4.5c-0.5-3.1-3.2-5.4-6.4-5.4c-2.9,0-5.4,1.9-6.3,4.6
									c-0.8-0.3-1.6-0.5-2.5-0.5c-0.6,0-1.2,0.1-1.8,0.3c-1.1-2-3.3-3.4-5.8-3.4c-0.8,0-1.5,0.1-2.2,0.4c-1-2.2-3.3-3.8-5.9-3.8
									c-3.5,0-6.3,2.7-6.5,6.1c-0.9-0.4-1.9-0.7-2.9-0.7c-0.6,0-1.1,0.1-1.6,0.2c-1.2-1.4-3-2.3-4.9-2.3c-3.6,0-6.6,2.9-6.6,6.6
									c0,0.3,0,0.7,0.1,1c-1.4,0-2.7,0.5-3.8,1.3c-1.6,1.2-2.7,3.1-2.7,5.3c0,2.2,1,4.1,2.7,5.3c0.7,0.5,1.6,0.9,2.5,1.1l13.4,0
									L19-16l11.6,0c0.4-0.8,0.7-1.8,0.8-2.8C32.7-19.6,33.9-21.3,33.9-23.2z"/>
								<path class="st5" d="M-7.4-20.6c-1.9-1.9-1.8-5.5,0.2-7.3c2-1.8,5.6-1.5,7.3,0.6c1.2,1.5,1.1,4.1-0.3,5.5"/>
								<path class="st5" d="M1-25c0.9-1.5,2.8-2.2,4.5-1.7c1.6,0.5,2.9,2.2,2.8,3.9"/>
								<path class="st4" d="M26-32.1c-0.9,0-7.3-0.5-7.2,6"/>
							</g>
							<g>
								<path class="st4" d="M-13.4,40h-7c-1.5,0-2.7-1.1-2.9-2.6l-5.5-53.6l11.9,0L-13.4,40z"/>
								<polygon class="st4" points="-3.8,40 -13.4,40 -16.8,-16.2 -5,-16.2 								"/>
								<polygon class="st4" points="5.8,40 -3.8,40 -5,-16.2 6.9,-16.2 								"/>
								<polygon class="st4" points="15.3,40 5.8,40 6.9,-16.2 18.8,-16.2 								"/>
								<path class="st4" d="M22.3,40l-7,0l3.4-56.2l11.9,0l-5.5,53.6C25,38.9,23.8,40,22.3,40z"/>
								<path class="st4" d="M6.9,16.7l-12,0c-2.8,0-5-2.2-5-5l0-4.5c0-2.8,2.2-5,5-5l12,0c2.8,0,5,2.2,5,5l0,4.5
									C11.9,14.5,9.7,16.7,6.9,16.7z"/>
							</g>
						</g>
					</g>
				</g>
			</g>
		</g>
	</g>
	<g>
		<g transform="translate(128,-128)">
			
				<g transform="matrix(-0.0456 0.999 -0.999 -0.0456 243.7065 -82.5047) translate(161.268,75.17099999999999) scale(0.47706666666666664)">
				<g transform="scale(0.9)">
					<g>
						<g id="id-0.5792736874971864_00000145737842166367287240000000830567677344597682_">
							<g>
								<path class="st4" d="M33.9-23.2c0-2-1.3-3.7-3-4.4c-0.7-2.2-2.5-4-4.8-4.5c-0.5-3.1-3.2-5.4-6.4-5.4c-2.9,0-5.4,1.9-6.3,4.6
									c-0.8-0.3-1.6-0.5-2.5-0.5c-0.6,0-1.2,0.1-1.8,0.3c-1.1-2-3.3-3.4-5.8-3.4c-0.8,0-1.5,0.1-2.2,0.4c-1-2.2-3.3-3.8-5.9-3.8
									c-3.5,0-6.3,2.7-6.5,6.1c-0.9-0.4-1.9-0.7-2.9-0.7c-0.6,0-1.1,0.1-1.6,0.2c-1.2-1.4-3-2.3-4.9-2.3c-3.6,0-6.6,2.9-6.6,6.6
									c0,0.3,0,0.7,0.1,1c-1.4,0-2.7,0.5-3.8,1.3c-1.6,1.2-2.7,3.1-2.7,5.3s1,4.1,2.7,5.3c0.7,0.5,1.6,0.9,2.5,1.1l13.4,0L19-16
									l11.6,0c0.4-0.8,0.7-1.8,0.8-2.8C32.7-19.6,33.9-21.3,33.9-23.2z"/>
								<path class="st5" d="M-7.4-20.6c-1.9-1.9-1.8-5.5,0.2-7.3c2-1.8,5.6-1.5,7.3,0.6c1.2,1.5,1.1,4.1-0.3,5.5"/>
								<path class="st5" d="M1-25c0.9-1.5,2.8-2.2,4.5-1.7c1.6,0.5,2.9,2.2,2.8,3.9"/>
								<path class="st4" d="M26-32.1c-0.9,0-7.3-0.5-7.2,6"/>
							</g>
							<g>
								<path class="st4" d="M-13.4,40l-7,0c-1.5,0-2.7-1.1-2.9-2.6l-5.5-53.6l11.9,0L-13.4,40z"/>
								<polygon class="st4" points="-3.8,40 -13.4,40 -16.8,-16.2 -5,-16.2 								"/>
								<polygon class="st4" points="5.8,40 -3.8,40 -5,-16.2 6.9,-16.2 								"/>
								<polygon class="st4" points="15.3,40 5.8,40 6.9,-16.2 18.8,-16.2 								"/>
								<path class="st4" d="M22.3,40l-7,0l3.4-56.2l11.9,0l-5.5,53.6C25,38.9,23.8,40,22.3,40z"/>
								<path class="st4" d="M6.9,16.7l-12,0c-2.8,0-5-2.2-5-5l0-4.5c0-2.8,2.2-5,5-5l12,0c2.8,0,5,2.2,5,5l0,4.5
									C11.9,14.5,9.7,16.7,6.9,16.7z"/>
							</g>
						</g>
					</g>
				</g>
			</g>
		</g>
	</g>
	<g>
		<g transform="translate(-128,-128)">
			<g transform="matrix(0.5905 -0.8071 0.8071 0.5905 -67.6584 252.8308) translate(215.293,193.0815) scale(0.5214666666666667)">
				<g transform="scale(0.9)">
					<g>
						<g id="id-0.5792736874971864_00000023964617605492128460000011736042140893546424_">
							<g>
								<path class="st6" d="M33.9-23.2c0-2-1.3-3.7-3-4.4c-0.7-2.2-2.5-4-4.8-4.5c-0.5-3.1-3.2-5.4-6.4-5.4c-2.9,0-5.4,1.9-6.3,4.6
									c-0.8-0.3-1.6-0.5-2.5-0.5c-0.6,0-1.2,0.1-1.8,0.3c-1.1-2-3.3-3.4-5.8-3.4c-0.8,0-1.5,0.1-2.2,0.4c-1-2.2-3.3-3.8-5.9-3.8
									c-3.5,0-6.3,2.7-6.5,6.1c-0.9-0.4-1.9-0.7-2.9-0.7c-0.6,0-1.1,0.1-1.6,0.2c-1.2-1.4-3-2.3-4.9-2.3c-3.6,0-6.6,2.9-6.6,6.6
									c0,0.3,0,0.7,0.1,1c-1.4,0-2.7,0.5-3.8,1.3c-1.6,1.2-2.7,3.1-2.7,5.3c0,2.2,1,4.1,2.7,5.3c0.7,0.5,1.6,0.9,2.5,1.1l13.4,0
									L19-16l11.6,0c0.4-0.8,0.7-1.8,0.8-2.8C32.7-19.6,33.9-21.3,33.9-23.2z"/>
								<path class="st7" d="M-7.4-20.6c-1.9-1.9-1.8-5.5,0.2-7.3c2-1.8,5.6-1.5,7.3,0.6c1.2,1.5,1.1,4.1-0.3,5.5"/>
								<path class="st7" d="M1-25c0.9-1.5,2.8-2.2,4.5-1.7c1.6,0.5,2.9,2.2,2.8,3.9"/>
								<path class="st6" d="M26-32.1c-0.9,0-7.3-0.5-7.2,6"/>
							</g>
							<g>
								<path class="st6" d="M-13.4,40l-7,0c-1.5,0-2.7-1.1-2.9-2.6l-5.5-53.6l11.9,0L-13.4,40z"/>
								<polygon class="st6" points="-3.8,40 -13.4,40 -16.8,-16.2 -5,-16.2 								"/>
								<polygon class="st6" points="5.8,40 -3.8,40 -5,-16.2 6.9,-16.2 								"/>
								<polygon class="st6" points="15.3,40 5.8,40 6.9,-16.2 18.8,-16.2 								"/>
								<path class="st6" d="M22.3,40h-7l3.4-56.2l11.9,0l-5.5,53.6C25,38.9,23.8,40,22.3,40z"/>
								<path class="st6" d="M6.9,16.7l-12,0c-2.8,0-5-2.2-5-5l0-4.5c0-2.8,2.2-5,5-5l12,0c2.8,0,5,2.2,5,5l0,4.5
									C11.9,14.5,9.7,16.7,6.9,16.7z"/>
							</g>
						</g>
					</g>
				</g>
			</g>
		</g>
	</g>
	<g>
		<g transform="translate(128,-128)">
			<g transform="matrix(0.5905 -0.8071 0.8071 0.5905 -67.6584 252.8308) translate(215.293,193.0815) scale(0.5214666666666667)">
				<g transform="scale(0.9)">
					<g>
						<g id="id-0.5792736874971864_00000066501024542432922330000002694705849285050044_">
							<g>
								<path class="st6" d="M33.9-23.2c0-2-1.3-3.7-3-4.4c-0.7-2.2-2.5-4-4.8-4.5c-0.5-3.1-3.2-5.4-6.4-5.4c-2.9,0-5.4,1.9-6.3,4.6
									c-0.8-0.3-1.6-0.5-2.5-0.5c-0.6,0-1.2,0.1-1.8,0.3c-1.1-2-3.3-3.4-5.8-3.4c-0.8,0-1.5,0.1-2.2,0.4c-1-2.2-3.3-3.8-5.9-3.8
									c-3.5,0-6.3,2.7-6.5,6.1c-0.9-0.4-1.9-0.7-2.9-0.7c-0.6,0-1.1,0.1-1.6,0.2c-1.2-1.4-3-2.3-4.9-2.3c-3.6,0-6.6,2.9-6.6,6.6
									c0,0.3,0,0.7,0.1,1c-1.4,0-2.7,0.5-3.8,1.3c-1.6,1.2-2.7,3.1-2.7,5.3c0,2.2,1,4.1,2.7,5.3c0.7,0.5,1.6,0.9,2.5,1.1l13.4,0
									L19-16l11.6,0c0.4-0.8,0.7-1.8,0.8-2.8C32.7-19.6,33.9-21.3,33.9-23.2z"/>
								<path class="st7" d="M-7.4-20.6c-1.9-1.9-1.8-5.5,0.2-7.3c2-1.8,5.6-1.5,7.3,0.6c1.2,1.5,1.1,4.1-0.3,5.5"/>
								<path class="st7" d="M1-25c0.9-1.5,2.8-2.2,4.5-1.7c1.6,0.5,2.9,2.2,2.8,3.9"/>
								<path class="st6" d="M26-32.1c-0.9,0-7.3-0.5-7.2,6"/>
							</g>
							<g>
								<path class="st6" d="M-13.4,40l-7,0c-1.5,0-2.7-1.1-2.9-2.6l-5.5-53.6l11.9,0L-13.4,40z"/>
								<polygon class="st6" points="-3.8,40 -13.4,40 -16.8,-16.2 -5,-16.2 								"/>
								<polygon class="st6" points="5.8,40 -3.8,40 -5,-16.2 6.9,-16.2 								"/>
								<polygon class="st6" points="15.3,40 5.8,40 6.9,-16.2 18.8,-16.2 								"/>
								<path class="st6" d="M22.3,40l-7,0l3.4-56.2l11.9,0l-5.5,53.6C25,38.9,23.8,40,22.3,40z"/>
								<path class="st6" d="M6.9,16.7l-12,0c-2.8,0-5-2.2-5-5l0-4.5c0-2.8,2.2-5,5-5l12,0c2.8,0,5,2.2,5,5l0,4.5
									C11.9,14.5,9.7,16.7,6.9,16.7z"/>
							</g>
						</g>
					</g>
				</g>
			</g>
		</g>
	</g>
	<g>
		<g transform="translate(-128,-128)">
			
				<g transform="matrix(-0.4749 -0.8801 0.8801 -0.4749 38.8277 99.7848) translate(49.185,38.308499999999995) scale(0.5980444444444444)">
				<g transform="scale(0.9)">
					<g>
						<g id="id-0.5792736874971864_00000122718060246286239010000014310961741305501319_">
							<g>
								<path class="st8" d="M33.9-23.2c0-2-1.3-3.7-3-4.4c-0.7-2.2-2.5-4-4.8-4.5c-0.5-3.1-3.2-5.4-6.4-5.4c-2.9,0-5.4,1.9-6.3,4.6
									c-0.8-0.3-1.6-0.5-2.5-0.5c-0.6,0-1.2,0.1-1.8,0.3c-1.1-2-3.3-3.4-5.8-3.4c-0.8,0-1.5,0.1-2.2,0.4c-1-2.2-3.3-3.8-5.9-3.8
									c-3.5,0-6.3,2.7-6.5,6.1c-0.9-0.4-1.9-0.7-2.9-0.7c-0.6,0-1.1,0.1-1.6,0.2c-1.2-1.4-3-2.3-4.9-2.3c-3.6,0-6.6,2.9-6.6,6.6
									c0,0.3,0,0.7,0.1,1c-1.4,0-2.7,0.5-3.8,1.3c-1.6,1.2-2.7,3.1-2.7,5.3s1,4.1,2.7,5.3c0.7,0.5,1.6,0.9,2.5,1.1l13.4,0L19-16
									l11.6,0c0.4-0.8,0.7-1.8,0.8-2.8C32.7-19.6,33.9-21.3,33.9-23.2z"/>
								<path class="st9" d="M-7.4-20.6c-1.9-1.9-1.8-5.5,0.2-7.3c2-1.8,5.6-1.5,7.3,0.6c1.2,1.5,1.1,4.1-0.3,5.5"/>
								<path class="st9" d="M1-25c0.9-1.5,2.8-2.2,4.5-1.7c1.6,0.5,2.9,2.2,2.8,3.9"/>
								<path class="st8" d="M26-32.1c-0.9,0-7.3-0.5-7.2,6"/>
							</g>
							<g>
								<path class="st8" d="M-13.4,40l-7,0c-1.5,0-2.7-1.1-2.9-2.6l-5.5-53.6l11.9,0L-13.4,40z"/>
								<polygon class="st8" points="-3.8,40 -13.4,40 -16.8,-16.2 -5,-16.2 								"/>
								<polygon class="st8" points="5.8,40 -3.8,40 -5,-16.2 6.9,-16.2 								"/>
								<polygon class="st8" points="15.3,40 5.8,40 6.9,-16.2 18.8,-16.2 								"/>
								<path class="st8" d="M22.3,40l-7,0l3.4-56.2l11.9,0l-5.5,53.6C25,38.9,23.8,40,22.3,40z"/>
								<path class="st8" d="M6.9,16.7l-12,0c-2.8,0-5-2.2-5-5l0-4.5c0-2.8,2.2-5,5-5l12,0c2.8,0,5,2.2,5,5l0,4.5
									C11.9,14.5,9.7,16.7,6.9,16.7z"/>
							</g>
						</g>
					</g>
				</g>
			</g>
		</g>
	</g>
	<g>
		<g transform="translate(128,-128)">
			
				<g transform="matrix(-0.4749 -0.8801 0.8801 -0.4749 38.8277 99.7848) translate(49.185,38.308499999999995) scale(0.5980444444444444)">
				<g transform="scale(0.9)">
					<g>
						<g id="id-0.5792736874971864_00000031195588514717907220000007224610885441026479_">
							<g>
								<path class="st8" d="M33.9-23.2c0-2-1.3-3.7-3-4.4c-0.7-2.2-2.5-4-4.8-4.5c-0.5-3.1-3.2-5.4-6.4-5.4c-2.9,0-5.4,1.9-6.3,4.6
									c-0.8-0.3-1.6-0.5-2.5-0.5c-0.6,0-1.2,0.1-1.8,0.3c-1.1-2-3.3-3.4-5.8-3.4c-0.8,0-1.5,0.1-2.2,0.4c-1-2.2-3.3-3.8-5.9-3.8
									c-3.5,0-6.3,2.7-6.5,6.1c-0.9-0.4-1.9-0.7-2.9-0.7c-0.6,0-1.1,0.1-1.6,0.2c-1.2-1.4-3-2.3-4.9-2.3c-3.6,0-6.6,2.9-6.6,6.6
									c0,0.3,0,0.7,0.1,1c-1.4,0-2.7,0.5-3.8,1.3c-1.6,1.2-2.7,3.1-2.7,5.3c0,2.2,1,4.1,2.7,5.3c0.7,0.5,1.6,0.9,2.5,1.1l13.4,0
									L19-16l11.6,0c0.4-0.8,0.7-1.8,0.8-2.8C32.7-19.6,33.9-21.3,33.9-23.2z"/>
								<path class="st9" d="M-7.4-20.6c-1.9-1.9-1.8-5.5,0.2-7.3c2-1.8,5.6-1.5,7.3,0.6c1.2,1.5,1.1,4.1-0.3,5.5"/>
								<path class="st9" d="M1-25c0.9-1.5,2.8-2.2,4.5-1.7c1.6,0.5,2.9,2.2,2.8,3.9"/>
								<path class="st8" d="M26-32.1c-0.9,0-7.3-0.5-7.2,6"/>
							</g>
							<g>
								<path class="st8" d="M-13.4,40l-7,0c-1.5,0-2.7-1.1-2.9-2.6l-5.5-53.6l11.9,0L-13.4,40z"/>
								<polygon class="st8" points="-3.8,40 -13.4,40 -16.8,-16.2 -5,-16.2 								"/>
								<polygon class="st8" points="5.8,40 -3.8,40 -5,-16.2 6.9,-16.2 								"/>
								<polygon class="st8" points="15.3,40 5.8,40 6.9,-16.2 18.8,-16.2 								"/>
								<path class="st8" d="M22.3,40l-7,0l3.4-56.2l11.9,0l-5.5,53.6C25,38.9,23.8,40,22.3,40z"/>
								<path class="st8" d="M6.9,16.7l-12,0c-2.8,0-5-2.2-5-5l0-4.5c0-2.8,2.2-5,5-5l12,0c2.8,0,5,2.2,5,5l0,4.5
									C11.9,14.5,9.7,16.7,6.9,16.7z"/>
							</g>
						</g>
					</g>
				</g>
			</g>
		</g>
	</g>
	<g>
		<g transform="translate(-128,-128)">
			<g transform="matrix(0.7381 -0.6747 0.6747 0.7381 -85.9069 63.1885) translate(38.434,142.243) scale(0.607688888888889)">
				<g transform="scale(0.9)">
					<g>
						<g id="id-0.5792736874971864_00000124126632103129657350000002914606657567151498_">
							<g>
								<path class="st10" d="M33.9-23.2c0-2-1.3-3.7-3-4.4c-0.7-2.2-2.5-4-4.8-4.5c-0.5-3.1-3.2-5.4-6.4-5.4
									c-2.9,0-5.4,1.9-6.3,4.6c-0.8-0.3-1.6-0.5-2.5-0.5c-0.6,0-1.2,0.1-1.8,0.3c-1.1-2-3.3-3.4-5.8-3.4c-0.8,0-1.5,0.1-2.2,0.4
									c-1-2.2-3.3-3.8-5.9-3.8c-3.5,0-6.3,2.7-6.5,6.1c-0.9-0.4-1.9-0.7-2.9-0.7c-0.6,0-1.1,0.1-1.6,0.2c-1.2-1.4-3-2.3-4.9-2.3
									c-3.6,0-6.6,2.9-6.6,6.6c0,0.3,0,0.7,0.1,1c-1.4,0-2.7,0.5-3.8,1.3c-1.6,1.2-2.7,3.1-2.7,5.3s1,4.1,2.7,5.3
									c0.7,0.5,1.6,0.9,2.5,1.1l13.4,0L19-16l11.6,0c0.4-0.8,0.7-1.8,0.8-2.8C32.7-19.6,33.9-21.3,33.9-23.2z"/>
								<path class="st11" d="M-7.4-20.6c-1.9-1.9-1.8-5.5,0.2-7.3s5.6-1.5,7.3,0.6c1.2,1.5,1.1,4.1-0.3,5.5"/>
								<path class="st11" d="M1-25c0.9-1.5,2.8-2.2,4.5-1.7c1.6,0.5,2.9,2.2,2.8,3.9"/>
								<path class="st10" d="M26-32.1c-0.9,0-7.3-0.5-7.2,6"/>
							</g>
							<g>
								<path class="st10" d="M-13.4,40l-7,0c-1.5,0-2.7-1.1-2.9-2.6l-5.5-53.6l11.9,0L-13.4,40z"/>
								<polygon class="st10" points="-3.8,40 -13.4,40 -16.8,-16.2 -5,-16.2 								"/>
								<polygon class="st10" points="5.8,40 -3.8,40 -5,-16.2 6.9,-16.2 								"/>
								<polygon class="st10" points="15.3,40 5.8,40 6.9,-16.2 18.8,-16.2 								"/>
								<path class="st10" d="M22.3,40l-7,0l3.4-56.2l11.9,0l-5.5,53.6C25,38.9,23.8,40,22.3,40z"/>
								<path class="st10" d="M6.9,16.7l-12,0c-2.8,0-5-2.2-5-5l0-4.5c0-2.8,2.2-5,5-5l12,0c2.8,0,5,2.2,5,5l0,4.5
									C11.9,14.5,9.7,16.7,6.9,16.7z"/>
							</g>
						</g>
					</g>
				</g>
			</g>
		</g>
	</g>
	<g>
		<g transform="translate(128,-128)">
			<g transform="matrix(0.7381 -0.6747 0.6747 0.7381 -85.9069 63.1885) translate(38.434,142.243) scale(0.607688888888889)">
				<g transform="scale(0.9)">
					<g>
						<g id="id-0.5792736874971864_00000023270322715959238440000012359317297212604347_">
							<g>
								<path class="st10" d="M33.9-23.2c0-2-1.3-3.7-3-4.4c-0.7-2.2-2.5-4-4.8-4.5c-0.5-3.1-3.2-5.4-6.4-5.4
									c-2.9,0-5.4,1.9-6.3,4.6c-0.8-0.3-1.6-0.5-2.5-0.5c-0.6,0-1.2,0.1-1.8,0.3c-1.1-2-3.3-3.4-5.8-3.4c-0.8,0-1.5,0.1-2.2,0.4
									c-1-2.2-3.3-3.8-5.9-3.8c-3.5,0-6.3,2.7-6.5,6.1c-0.9-0.4-1.9-0.7-2.9-0.7c-0.6,0-1.1,0.1-1.6,0.2c-1.2-1.4-3-2.3-4.9-2.3
									c-3.6,0-6.6,2.9-6.6,6.6c0,0.3,0,0.7,0.1,1c-1.4,0-2.7,0.5-3.8,1.3c-1.6,1.2-2.7,3.1-2.7,5.3c0,2.2,1,4.1,2.7,5.3
									c0.7,0.5,1.6,0.9,2.5,1.1l13.4,0L19-16l11.6,0c0.4-0.8,0.7-1.8,0.8-2.8C32.7-19.6,33.9-21.3,33.9-23.2z"/>
								<path class="st11" d="M-7.4-20.6c-1.9-1.9-1.8-5.5,0.2-7.3s5.6-1.5,7.3,0.6c1.2,1.5,1.1,4.1-0.3,5.5"/>
								<path class="st11" d="M1-25c0.9-1.5,2.8-2.2,4.5-1.7c1.6,0.5,2.9,2.2,2.8,3.9"/>
								<path class="st10" d="M26-32.1c-0.9,0-7.3-0.5-7.2,6"/>
							</g>
							<g>
								<path class="st10" d="M-13.4,40l-7,0c-1.5,0-2.7-1.1-2.9-2.6l-5.5-53.6l11.9,0L-13.4,40z"/>
								<polygon class="st10" points="-3.8,40 -13.4,40 -16.8,-16.2 -5,-16.2 								"/>
								<polygon class="st10" points="5.8,40 -3.8,40 -5,-16.2 6.9,-16.2 								"/>
								<polygon class="st10" points="15.3,40 5.8,40 6.9,-16.2 18.8,-16.2 								"/>
								<path class="st10" d="M22.3,40l-7,0l3.4-56.2l11.9,0l-5.5,53.6C25,38.9,23.8,40,22.3,40z"/>
								<path class="st10" d="M6.9,16.7l-12,0c-2.8,0-5-2.2-5-5l0-4.5c0-2.8,2.2-5,5-5l12,0c2.8,0,5,2.2,5,5l0,4.5
									C11.9,14.5,9.7,16.7,6.9,16.7z"/>
							</g>
						</g>
					</g>
				</g>
			</g>
		</g>
	</g>
	<g>
		<g transform="translate(-128,128)">
			<polygon class="st1" points="95.3,99 73.3,96.2 74.2,90.6 94.5,93.7 			"/>
		</g>
	</g>
	<g>
		<g transform="translate(128,128)">
			<polygon class="st1" points="95.3,99 73.3,96.2 74.2,90.6 94.5,93.7 			"/>
		</g>
	</g>
	<g>
		<g transform="translate(-128,128)">
			<path class="st1" d="M38.1,224.5c0,0-0.1,0-0.1,0c-2.9,0-5.7-1.2-7.7-3.3c-4.2-4.4-4.1-11.3,0.2-15.6c2.1-2.1,4.9-3.2,7.8-3.1
				c2.9,0,5.7,1.2,7.7,3.3c4.2,4.4,4.1,11.3-0.2,15.6C43.7,223.4,41,224.5,38.1,224.5z M38.1,207.5c-1.6,0-3,0.6-4.2,1.7
				c-2.4,2.3-2.4,6.1-0.1,8.5c1.1,1.1,2.6,1.8,4.2,1.8c1.6,0,3.1-0.6,4.2-1.7c2.4-2.3,2.4-6.1,0.1-8.5l0,0
				C41.3,208.2,39.8,207.5,38.1,207.5C38.2,207.5,38.1,207.5,38.1,207.5z"/>
		</g>
	</g>
	<g>
		<g transform="translate(128,128)">
			<path class="st1" d="M38.1,224.5c0,0-0.1,0-0.1,0c-2.9,0-5.7-1.2-7.7-3.3c-4.2-4.4-4.1-11.3,0.2-15.6c2.1-2.1,4.9-3.2,7.8-3.1
				c2.9,0,5.7,1.2,7.7,3.3c4.2,4.4,4.1,11.3-0.2,15.6C43.7,223.4,41,224.5,38.1,224.5z M38.1,207.5c-1.6,0-3,0.6-4.2,1.7
				c-2.4,2.3-2.4,6.1-0.1,8.5c1.1,1.1,2.6,1.8,4.2,1.8c1.6,0,3.1-0.6,4.2-1.7c2.4-2.3,2.4-6.1,0.1-8.5l0,0
				C41.3,208.2,39.8,207.5,38.1,207.5C38.2,207.5,38.1,207.5,38.1,207.5z"/>
		</g>
	</g>
	<g>
		<g transform="translate(-128,128)">
			
				<ellipse transform="matrix(0.7249 -0.6888 0.6888 0.7249 31.7822 174.5887)" class="st1" cx="234.5" cy="47.5" rx="4.4" ry="4.4"/>
		</g>
	</g>
	<g>
		<g transform="translate(128,128)">
			
				<ellipse transform="matrix(0.7249 -0.6888 0.6888 0.7249 31.7822 174.5888)" class="st1" cx="234.5" cy="47.5" rx="4.4" ry="4.4"/>
		</g>
	</g>
	<g>
		<g transform="translate(-128,128)">
			<path class="st1" d="M156.3,159.2l-1.7-5.1c3.9-1.3,6-5.6,4.7-9.5c-0.6-1.9-2-3.4-3.8-4.3c-1.8-0.9-3.8-1-5.7-0.4l-1.7-5.1
				c3.3-1.1,6.7-0.9,9.8,0.6c3.1,1.5,5.4,4.1,6.5,7.4C166.6,149.6,163,156.9,156.3,159.2z"/>
		</g>
	</g>
	<g>
		<g transform="translate(128,128)">
			<path class="st1" d="M156.3,159.2l-1.7-5.1c3.9-1.3,6-5.6,4.7-9.5c-0.6-1.9-2-3.4-3.8-4.3c-1.8-0.9-3.8-1-5.7-0.4l-1.7-5.1
				c3.3-1.1,6.7-0.9,9.8,0.6c3.1,1.5,5.4,4.1,6.5,7.4C166.6,149.6,163,156.9,156.3,159.2z"/>
		</g>
	</g>
	<g>
		<g transform="translate(-128,128)">
			
				<ellipse transform="matrix(0.7249 -0.6888 0.6888 0.7249 -74.7826 111.7226)" class="st1" cx="102.5" cy="149.5" rx="4.4" ry="4.4"/>
		</g>
	</g>
	<g>
		<g transform="translate(128,128)">
			
				<ellipse transform="matrix(0.7249 -0.6888 0.6888 0.7249 -74.7826 111.7226)" class="st1" cx="102.5" cy="149.5" rx="4.4" ry="4.4"/>
		</g>
	</g>
	<g>
		<g transform="translate(-128,128)">
			<polygon class="st1" points="231.5,249.2 247.1,235.9 252.9,238.8 235.2,253.5 			"/>
		</g>
	</g>
	<g>
		<g transform="translate(128,128)">
			<polygon class="st1" points="231.5,249.2 247.1,235.9 252.9,238.8 235.2,253.5 			"/>
		</g>
	</g>
	<g>
		<g transform="translate(-128,128)">
			<polygon class="st1" points="115.4,22 104,43 100.2,36.9 110.4,19.1 			"/>
		</g>
	</g>
	<g>
		<g transform="translate(128,128)">
			<polygon class="st1" points="115.4,22 104,43 100.2,36.9 110.4,19.1 			"/>
		</g>
	</g>
	<g>
		<g transform="translate(-128,128)">
			<path class="st1" d="M222.1,130.6c0,0-0.1,0-0.1,0c-2.6,0-5-1.1-6.8-2.9c-3.7-3.8-3.7-10,0.2-13.7c1.9-1.8,4.3-2.8,6.9-2.8
				c2.6,0,5,1.1,6.8,2.9c3.7,3.8,3.7,10-0.2,13.7C227.1,129.6,224.7,130.6,222.1,130.6z M222.1,115.6c-1.4,0-2.7,0.5-3.7,1.5
				c-2.1,2-2.1,5.4-0.1,7.5c1,1,2.3,1.6,3.7,1.6c1.4,0,2.7-0.5,3.7-1.5c2.1-2,2.1-5.4,0.1-7.5l0,0
				C224.9,116.2,223.6,115.6,222.1,115.6C222.1,115.6,222.1,115.6,222.1,115.6z"/>
		</g>
	</g>
	<g>
		<g transform="translate(128,128)">
			<path class="st1" d="M222.1,130.6c0,0-0.1,0-0.1,0c-2.6,0-5-1.1-6.8-2.9c-3.7-3.8-3.7-10,0.2-13.7c1.9-1.8,4.3-2.8,6.9-2.8
				c2.6,0,5,1.1,6.8,2.9c3.7,3.8,3.7,10-0.2,13.7C227.1,129.6,224.7,130.6,222.1,130.6z M222.1,115.6c-1.4,0-2.7,0.5-3.7,1.5
				c-2.1,2-2.1,5.4-0.1,7.5c1,1,2.3,1.6,3.7,1.6c1.4,0,2.7-0.5,3.7-1.5c2.1-2,2.1-5.4,0.1-7.5l0,0
				C224.9,116.2,223.6,115.6,222.1,115.6C222.1,115.6,222.1,115.6,222.1,115.6z"/>
		</g>
	</g>
	<g>
		<g transform="translate(-128,128)">
			<path class="st1" d="M184.5,10l-4,1.1c-0.8-3.1-4-5-7.2-4.2c-1.5,0.4-2.8,1.4-3.6,2.7c-0.8,1.4-1,2.9-0.6,4.4l-4,1.1
				c-0.7-2.6-0.3-5.3,1-7.6c1.3-2.3,3.5-4,6.1-4.6C177.6,1.5,183.1,4.7,184.5,10z"/>
		</g>
	</g>
	<g>
		<g transform="translate(128,128)">
			<path class="st1" d="M184.5,10l-4,1.1c-0.8-3.1-4-5-7.2-4.2c-1.5,0.4-2.8,1.4-3.6,2.7c-0.8,1.4-1,2.9-0.6,4.4l-4,1.1
				c-0.7-2.6-0.3-5.3,1-7.6c1.3-2.3,3.5-4,6.1-4.6C177.6,1.5,183.1,4.7,184.5,10z"/>
		</g>
	</g>
	<g>
		<g transform="translate(-128,128)">
			<g transform="matrix(0.9912 0.1325 -0.1325 0.9912 30.542 -14.083) translate(121.067,222.398) scale(0.6786666666666666)">
				<g transform="scale(0.9)">
					<g>
						<g id="id-0.5792736874971864_00000095338532575718858680000016780674867101292946_">
							<g>
								<path class="st2" d="M33.9-23.2c0-2-1.3-3.7-3-4.4c-0.7-2.2-2.5-4-4.8-4.5c-0.5-3.1-3.2-5.4-6.4-5.4c-2.9,0-5.4,1.9-6.3,4.6
									c-0.8-0.3-1.6-0.5-2.5-0.5c-0.6,0-1.2,0.1-1.8,0.3c-1.1-2-3.3-3.4-5.8-3.4c-0.8,0-1.5,0.1-2.2,0.4c-1-2.2-3.3-3.8-5.9-3.8
									c-3.5,0-6.3,2.7-6.5,6.1c-0.9-0.4-1.9-0.7-2.9-0.7c-0.6,0-1.1,0.1-1.6,0.2c-1.2-1.4-3-2.3-4.9-2.3c-3.6,0-6.6,2.9-6.6,6.6
									c0,0.3,0,0.7,0.1,1c-1.4,0-2.7,0.5-3.8,1.3c-1.6,1.2-2.7,3.1-2.7,5.3s1,4.1,2.7,5.3c0.7,0.5,1.6,0.9,2.5,1.1l13.4,0L19-16
									l11.6,0c0.4-0.8,0.7-1.8,0.8-2.8C32.7-19.6,33.9-21.3,33.9-23.2z"/>
								<path class="st3" d="M-7.4-20.6c-1.9-1.9-1.8-5.5,0.2-7.3s5.6-1.5,7.3,0.6c1.2,1.5,1.1,4.1-0.3,5.5"/>
								<path class="st3" d="M1-25c0.9-1.5,2.8-2.2,4.5-1.7c1.6,0.5,2.9,2.2,2.8,3.9"/>
								<path class="st2" d="M26-32.1c-0.9,0-7.3-0.5-7.2,6"/>
							</g>
							<g>
								<path class="st2" d="M-13.4,40l-7,0c-1.5,0-2.7-1.1-2.9-2.6l-5.5-53.6l11.9,0L-13.4,40z"/>
								<polygon class="st2" points="-3.8,40 -13.4,40 -16.8,-16.2 -5,-16.2 								"/>
								<polygon class="st2" points="5.8,40 -3.8,40 -5,-16.2 6.9,-16.2 								"/>
								<polygon class="st2" points="15.3,40 5.8,40 6.9,-16.2 18.8,-16.2 								"/>
								<path class="st2" d="M22.3,40l-7,0l3.4-56.2l11.9,0l-5.5,53.6C25,38.9,23.8,40,22.3,40z"/>
								<path class="st2" d="M6.9,16.7l-12,0c-2.8,0-5-2.2-5-5l0-4.5c0-2.8,2.2-5,5-5l12,0c2.8,0,5,2.2,5,5l0,4.5
									C11.9,14.5,9.7,16.7,6.9,16.7z"/>
							</g>
						</g>
					</g>
				</g>
			</g>
		</g>
	</g>
	<g>
		<g transform="translate(128,128)">
			<g transform="matrix(0.9912 0.1325 -0.1325 0.9912 30.542 -14.083) translate(121.067,222.398) scale(0.6786666666666666)">
				<g transform="scale(0.9)">
					<g>
						<g id="id-0.5792736874971864_00000175320089070122569060000000861817027438676666_">
							<g>
								<path class="st2" d="M33.9-23.2c0-2-1.3-3.7-3-4.4c-0.7-2.2-2.5-4-4.8-4.5c-0.5-3.1-3.2-5.4-6.4-5.4c-2.9,0-5.4,1.9-6.3,4.6
									c-0.8-0.3-1.6-0.5-2.5-0.5c-0.6,0-1.2,0.1-1.8,0.3c-1.1-2-3.3-3.4-5.8-3.4c-0.8,0-1.5,0.1-2.2,0.4c-1-2.2-3.3-3.8-5.9-3.8
									c-3.5,0-6.3,2.7-6.5,6.1c-0.9-0.4-1.9-0.7-2.9-0.7c-0.6,0-1.1,0.1-1.6,0.2c-1.2-1.4-3-2.3-4.9-2.3c-3.6,0-6.6,2.9-6.6,6.6
									c0,0.3,0,0.7,0.1,1c-1.4,0-2.7,0.5-3.8,1.3c-1.6,1.2-2.7,3.1-2.7,5.3s1,4.1,2.7,5.3c0.7,0.5,1.6,0.9,2.5,1.1l13.4,0L19-16
									l11.6,0c0.4-0.8,0.7-1.8,0.8-2.8C32.7-19.6,33.9-21.3,33.9-23.2z"/>
								<path class="st3" d="M-7.4-20.6c-1.9-1.9-1.8-5.5,0.2-7.3s5.6-1.5,7.3,0.6c1.2,1.5,1.1,4.1-0.3,5.5"/>
								<path class="st3" d="M1-25c0.9-1.5,2.8-2.2,4.5-1.7c1.6,0.5,2.9,2.2,2.8,3.9"/>
								<path class="st2" d="M26-32.1c-0.9,0-7.3-0.5-7.2,6"/>
							</g>
							<g>
								<path class="st2" d="M-13.4,40l-7,0c-1.5,0-2.7-1.1-2.9-2.6l-5.5-53.6l11.9,0L-13.4,40z"/>
								<polygon class="st2" points="-3.8,40 -13.4,40 -16.8,-16.2 -5,-16.2 								"/>
								<polygon class="st2" points="5.8,40 -3.8,40 -5,-16.2 6.9,-16.2 								"/>
								<polygon class="st2" points="15.3,40 5.8,40 6.9,-16.2 18.8,-16.2 								"/>
								<path class="st2" d="M22.3,40l-7,0l3.4-56.2l11.9,0l-5.5,53.6C25,38.9,23.8,40,22.3,40z"/>
								<path class="st2" d="M6.9,16.7l-12,0c-2.8,0-5-2.2-5-5l0-4.5c0-2.8,2.2-5,5-5l12,0c2.8,0,5,2.2,5,5l0,4.5
									C11.9,14.5,9.7,16.7,6.9,16.7z"/>
							</g>
						</g>
					</g>
				</g>
			</g>
		</g>
	</g>
	<g>
		<g transform="translate(-128,128)">
			
				<g transform="matrix(-0.0456 0.999 -0.999 -0.0456 243.7065 -82.5047) translate(161.268,75.17099999999999) scale(0.47706666666666664)">
				<g transform="scale(0.9)">
					<g>
						<g id="id-0.5792736874971864_00000034785783597599884760000016179220369518175633_">
							<g>
								<path class="st4" d="M33.9-23.2c0-2-1.3-3.7-3-4.4c-0.7-2.2-2.5-4-4.8-4.5c-0.5-3.1-3.2-5.4-6.4-5.4c-2.9,0-5.4,1.9-6.3,4.6
									c-0.8-0.3-1.6-0.5-2.5-0.5c-0.6,0-1.2,0.1-1.8,0.3c-1.1-2-3.3-3.4-5.8-3.4c-0.8,0-1.5,0.1-2.2,0.4c-1-2.2-3.3-3.8-5.9-3.8
									c-3.5,0-6.3,2.7-6.5,6.1c-0.9-0.4-1.9-0.7-2.9-0.7c-0.6,0-1.1,0.1-1.6,0.2c-1.2-1.4-3-2.3-4.9-2.3c-3.6,0-6.6,2.9-6.6,6.6
									c0,0.3,0,0.7,0.1,1c-1.4,0-2.7,0.5-3.8,1.3c-1.6,1.2-2.7,3.1-2.7,5.3c0,2.2,1,4.1,2.7,5.3c0.7,0.5,1.6,0.9,2.5,1.1l13.4,0
									L19-16l11.6,0c0.4-0.8,0.7-1.8,0.8-2.8C32.7-19.6,33.9-21.3,33.9-23.2z"/>
								<path class="st5" d="M-7.4-20.6c-1.9-1.9-1.8-5.5,0.2-7.3c2-1.8,5.6-1.5,7.3,0.6c1.2,1.5,1.1,4.1-0.3,5.5"/>
								<path class="st5" d="M1-25c0.9-1.5,2.8-2.2,4.5-1.7c1.6,0.5,2.9,2.2,2.8,3.9"/>
								<path class="st4" d="M26-32.1c-0.9,0-7.3-0.5-7.2,6"/>
							</g>
							<g>
								<path class="st4" d="M-13.4,40l-7,0c-1.5,0-2.7-1.1-2.9-2.6l-5.5-53.6l11.9,0L-13.4,40z"/>
								<polygon class="st4" points="-3.8,40 -13.4,40 -16.8,-16.2 -5,-16.2 								"/>
								<polygon class="st4" points="5.8,40 -3.8,40 -5,-16.2 6.9,-16.2 								"/>
								<polygon class="st4" points="15.3,40 5.8,40 6.9,-16.2 18.8,-16.2 								"/>
								<path class="st4" d="M22.3,40l-7,0l3.4-56.2l11.9,0l-5.5,53.6C25,38.9,23.8,40,22.3,40z"/>
								<path class="st4" d="M6.9,16.7l-12,0c-2.8,0-5-2.2-5-5l0-4.5c0-2.8,2.2-5,5-5l12,0c2.8,0,5,2.2,5,5l0,4.5
									C11.9,14.5,9.7,16.7,6.9,16.7z"/>
							</g>
						</g>
					</g>
				</g>
			</g>
		</g>
	</g>
	<g>
		<g transform="translate(128,128)">
			
				<g transform="matrix(-0.0456 0.999 -0.999 -0.0456 243.7065 -82.5047) translate(161.268,75.17099999999999) scale(0.47706666666666664)">
				<g transform="scale(0.9)">
					<g>
						<g id="id-0.5792736874971864_00000042000250181772210230000007204648617814247064_">
							<g>
								<path class="st4" d="M33.9-23.2c0-2-1.3-3.7-3-4.4c-0.7-2.2-2.5-4-4.8-4.5c-0.5-3.1-3.2-5.4-6.4-5.4c-2.9,0-5.4,1.9-6.3,4.6
									c-0.8-0.3-1.6-0.5-2.5-0.5c-0.6,0-1.2,0.1-1.8,0.3c-1.1-2-3.3-3.4-5.8-3.4c-0.8,0-1.5,0.1-2.2,0.4c-1-2.2-3.3-3.8-5.9-3.8
									c-3.5,0-6.3,2.7-6.5,6.1c-0.9-0.4-1.9-0.7-2.9-0.7c-0.6,0-1.1,0.1-1.6,0.2c-1.2-1.4-3-2.3-4.9-2.3c-3.6,0-6.6,2.9-6.6,6.6
									c0,0.3,0,0.7,0.1,1c-1.4,0-2.7,0.5-3.8,1.3c-1.6,1.2-2.7,3.1-2.7,5.3s1,4.1,2.7,5.3c0.7,0.5,1.6,0.9,2.5,1.1l13.4,0L19-16
									l11.6,0c0.4-0.8,0.7-1.8,0.8-2.8C32.7-19.6,33.9-21.3,33.9-23.2z"/>
								<path class="st5" d="M-7.4-20.6c-1.9-1.9-1.8-5.5,0.2-7.3c2-1.8,5.6-1.5,7.3,0.6c1.2,1.5,1.1,4.1-0.3,5.5"/>
								<path class="st5" d="M1-25c0.9-1.5,2.8-2.2,4.5-1.7c1.6,0.5,2.9,2.2,2.8,3.9"/>
								<path class="st4" d="M26-32.1c-0.9,0-7.3-0.5-7.2,6"/>
							</g>
							<g>
								<path class="st4" d="M-13.4,40l-7,0c-1.5,0-2.7-1.1-2.9-2.6l-5.5-53.6l11.9,0L-13.4,40z"/>
								<polygon class="st4" points="-3.8,40 -13.4,40 -16.8,-16.2 -5,-16.2 								"/>
								<polygon class="st4" points="5.8,40 -3.8,40 -5,-16.2 6.9,-16.2 								"/>
								<polygon class="st4" points="15.3,40 5.8,40 6.9,-16.2 18.8,-16.2 								"/>
								<path class="st4" d="M22.3,40l-7,0l3.4-56.2l11.9,0l-5.5,53.6C25,38.9,23.8,40,22.3,40z"/>
								<path class="st4" d="M6.9,16.7l-12,0c-2.8,0-5-2.2-5-5l0-4.5c0-2.8,2.2-5,5-5l12,0c2.8,0,5,2.2,5,5l0,4.5
									C11.9,14.5,9.7,16.7,6.9,16.7z"/>
							</g>
						</g>
					</g>
				</g>
			</g>
		</g>
	</g>
	<g>
		<g transform="translate(-128,128)">
			<g transform="matrix(0.5905 -0.8071 0.8071 0.5905 -67.6584 252.8308) translate(215.293,193.0815) scale(0.5214666666666667)">
				<g transform="scale(0.9)">
					<g>
						<g id="id-0.5792736874971864_00000174582412737350268960000002074278264186668967_">
							<g>
								<path class="st6" d="M33.9-23.2c0-2-1.3-3.7-3-4.4c-0.7-2.2-2.5-4-4.8-4.5c-0.5-3.1-3.2-5.4-6.4-5.4c-2.9,0-5.4,1.9-6.3,4.6
									c-0.8-0.3-1.6-0.5-2.5-0.5c-0.6,0-1.2,0.1-1.8,0.3c-1.1-2-3.3-3.4-5.8-3.4c-0.8,0-1.5,0.1-2.2,0.4c-1-2.2-3.3-3.8-5.9-3.8
									c-3.5,0-6.3,2.7-6.5,6.1c-0.9-0.4-1.9-0.7-2.9-0.7c-0.6,0-1.1,0.1-1.6,0.2c-1.2-1.4-3-2.3-4.9-2.3c-3.6,0-6.6,2.9-6.6,6.6
									c0,0.3,0,0.7,0.1,1c-1.4,0-2.7,0.5-3.8,1.3c-1.6,1.2-2.7,3.1-2.7,5.3s1,4.1,2.7,5.3c0.7,0.5,1.6,0.9,2.5,1.1l13.4,0L19-16
									l11.6,0c0.4-0.8,0.7-1.8,0.8-2.8C32.7-19.6,33.9-21.3,33.9-23.2z"/>
								<path class="st7" d="M-7.4-20.6c-1.9-1.9-1.8-5.5,0.2-7.3s5.6-1.5,7.3,0.6c1.2,1.5,1.1,4.1-0.3,5.5"/>
								<path class="st7" d="M1-25c0.9-1.5,2.8-2.2,4.5-1.7c1.6,0.5,2.9,2.2,2.8,3.9"/>
								<path class="st6" d="M26-32.1c-0.9,0-7.3-0.5-7.2,6"/>
							</g>
							<g>
								<path class="st6" d="M-13.4,40l-7,0c-1.5,0-2.7-1.1-2.9-2.6l-5.5-53.6l11.9,0L-13.4,40z"/>
								<polygon class="st6" points="-3.8,40 -13.4,40 -16.8,-16.2 -5,-16.2 								"/>
								<polygon class="st6" points="5.8,40 -3.8,40 -5,-16.2 6.9,-16.2 								"/>
								<polygon class="st6" points="15.3,40 5.8,40 6.9,-16.2 18.8,-16.2 								"/>
								<path class="st6" d="M22.3,40l-7,0l3.4-56.2l11.9,0l-5.5,53.6C25,38.9,23.8,40,22.3,40z"/>
								<path class="st6" d="M6.9,16.7l-12,0c-2.8,0-5-2.2-5-5l0-4.5c0-2.8,2.2-5,5-5l12,0c2.8,0,5,2.2,5,5l0,4.5
									C11.9,14.5,9.7,16.7,6.9,16.7z"/>
							</g>
						</g>
					</g>
				</g>
			</g>
		</g>
	</g>
	<g>
		<g transform="translate(128,128)">
			<g transform="matrix(0.5905 -0.8071 0.8071 0.5905 -67.6584 252.8308) translate(215.293,193.0815) scale(0.5214666666666667)">
				<g transform="scale(0.9)">
					<g>
						<g id="id-0.5792736874971864_00000038401270112753881820000008938913507103050674_">
							<g>
								<path class="st6" d="M33.9-23.2c0-2-1.3-3.7-3-4.4c-0.7-2.2-2.5-4-4.8-4.5c-0.5-3.1-3.2-5.4-6.4-5.4c-2.9,0-5.4,1.9-6.3,4.6
									c-0.8-0.3-1.6-0.5-2.5-0.5c-0.6,0-1.2,0.1-1.8,0.3c-1.1-2-3.3-3.4-5.8-3.4c-0.8,0-1.5,0.1-2.2,0.4c-1-2.2-3.3-3.8-5.9-3.8
									c-3.5,0-6.3,2.7-6.5,6.1c-0.9-0.4-1.9-0.7-2.9-0.7c-0.6,0-1.1,0.1-1.6,0.2c-1.2-1.4-3-2.3-4.9-2.3c-3.6,0-6.6,2.9-6.6,6.6
									c0,0.3,0,0.7,0.1,1c-1.4,0-2.7,0.5-3.8,1.3c-1.6,1.2-2.7,3.1-2.7,5.3s1,4.1,2.7,5.3c0.7,0.5,1.6,0.9,2.5,1.1l13.4,0L19-16
									l11.6,0c0.4-0.8,0.7-1.8,0.8-2.8C32.7-19.6,33.9-21.3,33.9-23.2z"/>
								<path class="st7" d="M-7.4-20.6c-1.9-1.9-1.8-5.5,0.2-7.3s5.6-1.5,7.3,0.6c1.2,1.5,1.1,4.1-0.3,5.5"/>
								<path class="st7" d="M1-25c0.9-1.5,2.8-2.2,4.5-1.7c1.6,0.5,2.9,2.2,2.8,3.9"/>
								<path class="st6" d="M26-32.1c-0.9,0-7.3-0.5-7.2,6"/>
							</g>
							<g>
								<path class="st6" d="M-13.4,40l-7,0c-1.5,0-2.7-1.1-2.9-2.6l-5.5-53.6l11.9,0L-13.4,40z"/>
								<polygon class="st6" points="-3.8,40 -13.4,40 -16.8,-16.2 -5,-16.2 								"/>
								<polygon class="st6" points="5.8,40 -3.8,40 -5,-16.2 6.9,-16.2 								"/>
								<polygon class="st6" points="15.3,40 5.8,40 6.9,-16.2 18.8,-16.2 								"/>
								<path class="st6" d="M22.3,40l-7,0l3.4-56.2l11.9,0l-5.5,53.6C25,38.9,23.8,40,22.3,40z"/>
								<path class="st6" d="M6.9,16.7l-12,0c-2.8,0-5-2.2-5-5l0-4.5c0-2.8,2.2-5,5-5l12,0c2.8,0,5,2.2,5,5l0,4.5
									C11.9,14.5,9.7,16.7,6.9,16.7z"/>
							</g>
						</g>
					</g>
				</g>
			</g>
		</g>
	</g>
	<g>
		<g transform="translate(-128,128)">
			
				<g transform="matrix(-0.4749 -0.8801 0.8801 -0.4749 38.8277 99.7848) translate(49.185,38.308499999999995) scale(0.5980444444444444)">
				<g transform="scale(0.9)">
					<g>
						<g id="id-0.5792736874971864_00000103235120566271728890000008526969532142413219_">
							<g>
								<path class="st8" d="M33.9-23.2c0-2-1.3-3.7-3-4.4c-0.7-2.2-2.5-4-4.8-4.5c-0.5-3.1-3.2-5.4-6.4-5.4c-2.9,0-5.4,1.9-6.3,4.6
									c-0.8-0.3-1.6-0.5-2.5-0.5c-0.6,0-1.2,0.1-1.8,0.3c-1.1-2-3.3-3.4-5.8-3.4c-0.8,0-1.5,0.1-2.2,0.4c-1-2.2-3.3-3.8-5.9-3.8
									c-3.5,0-6.3,2.7-6.5,6.1c-0.9-0.4-1.9-0.7-2.9-0.7c-0.6,0-1.1,0.1-1.6,0.2c-1.2-1.4-3-2.3-4.9-2.3c-3.6,0-6.6,2.9-6.6,6.6
									c0,0.3,0,0.7,0.1,1c-1.4,0-2.7,0.5-3.8,1.3c-1.6,1.2-2.7,3.1-2.7,5.3c0,2.2,1,4.1,2.7,5.3c0.7,0.5,1.6,0.9,2.5,1.1l13.4,0
									L19-16l11.6,0c0.4-0.8,0.7-1.8,0.8-2.8C32.7-19.6,33.9-21.3,33.9-23.2z"/>
								<path class="st9" d="M-7.4-20.6c-1.9-1.9-1.8-5.5,0.2-7.3s5.6-1.5,7.3,0.6c1.2,1.5,1.1,4.1-0.3,5.5"/>
								<path class="st9" d="M1-25c0.9-1.5,2.8-2.2,4.5-1.7c1.6,0.5,2.9,2.2,2.8,3.9"/>
								<path class="st8" d="M26-32.1c-0.9,0-7.3-0.5-7.2,6"/>
							</g>
							<g>
								<path class="st8" d="M-13.4,40l-7,0c-1.5,0-2.7-1.1-2.9-2.6l-5.5-53.6l11.9,0L-13.4,40z"/>
								<polygon class="st8" points="-3.8,40 -13.4,40 -16.8,-16.2 -5,-16.2 								"/>
								<polygon class="st8" points="5.8,40 -3.8,40 -5,-16.2 6.9,-16.2 								"/>
								<polygon class="st8" points="15.3,40 5.8,40 6.9,-16.2 18.8,-16.2 								"/>
								<path class="st8" d="M22.3,40h-7l3.4-56.2l11.9,0l-5.5,53.6C25,38.9,23.8,40,22.3,40z"/>
								<path class="st8" d="M6.9,16.7l-12,0c-2.8,0-5-2.2-5-5l0-4.5c0-2.8,2.2-5,5-5l12,0c2.8,0,5,2.2,5,5l0,4.5
									C11.9,14.5,9.7,16.7,6.9,16.7z"/>
							</g>
						</g>
					</g>
				</g>
			</g>
		</g>
	</g>
	<g>
		<g transform="translate(128,128)">
			
				<g transform="matrix(-0.4749 -0.8801 0.8801 -0.4749 38.8277 99.7848) translate(49.185,38.308499999999995) scale(0.5980444444444444)">
				<g transform="scale(0.9)">
					<g>
						<g id="id-0.5792736874971864_00000073706498391149223410000014510927981769965441_">
							<g>
								<path class="st8" d="M33.9-23.2c0-2-1.3-3.7-3-4.4c-0.7-2.2-2.5-4-4.8-4.5c-0.5-3.1-3.2-5.4-6.4-5.4c-2.9,0-5.4,1.9-6.3,4.6
									c-0.8-0.3-1.6-0.5-2.5-0.5c-0.6,0-1.2,0.1-1.8,0.3c-1.1-2-3.3-3.4-5.8-3.4c-0.8,0-1.5,0.1-2.2,0.4c-1-2.2-3.3-3.8-5.9-3.8
									c-3.5,0-6.3,2.7-6.5,6.1c-0.9-0.4-1.9-0.7-2.9-0.7c-0.6,0-1.1,0.1-1.6,0.2c-1.2-1.4-3-2.3-4.9-2.3c-3.6,0-6.6,2.9-6.6,6.6
									c0,0.3,0,0.7,0.1,1c-1.4,0-2.7,0.5-3.8,1.3c-1.6,1.2-2.7,3.1-2.7,5.3s1,4.1,2.7,5.3c0.7,0.5,1.6,0.9,2.5,1.1l13.4,0L19-16
									l11.6,0c0.4-0.8,0.7-1.8,0.8-2.8C32.7-19.6,33.9-21.3,33.9-23.2z"/>
								<path class="st9" d="M-7.4-20.6c-1.9-1.9-1.8-5.5,0.2-7.3s5.6-1.5,7.3,0.6c1.2,1.5,1.1,4.1-0.3,5.5"/>
								<path class="st9" d="M1-25c0.9-1.5,2.8-2.2,4.5-1.7c1.6,0.5,2.9,2.2,2.8,3.9"/>
								<path class="st8" d="M26-32.1c-0.9,0-7.3-0.5-7.2,6"/>
							</g>
							<g>
								<path class="st8" d="M-13.4,40l-7,0c-1.5,0-2.7-1.1-2.9-2.6l-5.5-53.6l11.9,0L-13.4,40z"/>
								<polygon class="st8" points="-3.8,40 -13.4,40 -16.8,-16.2 -5,-16.2 								"/>
								<polygon class="st8" points="5.8,40 -3.8,40 -5,-16.2 6.9,-16.2 								"/>
								<polygon class="st8" points="15.3,40 5.8,40 6.9,-16.2 18.8,-16.2 								"/>
								<path class="st8" d="M22.3,40l-7,0l3.4-56.2l11.9,0l-5.5,53.6C25,38.9,23.8,40,22.3,40z"/>
								<path class="st8" d="M6.9,16.7l-12,0c-2.8,0-5-2.2-5-5l0-4.5c0-2.8,2.2-5,5-5l12,0c2.8,0,5,2.2,5,5l0,4.5
									C11.9,14.5,9.7,16.7,6.9,16.7z"/>
							</g>
						</g>
					</g>
				</g>
			</g>
		</g>
	</g>
	<g>
		<g transform="translate(-128,128)">
			<g transform="matrix(0.7381 -0.6747 0.6747 0.7381 -85.9069 63.1885) translate(38.434,142.243) scale(0.607688888888889)">
				<g transform="scale(0.9)">
					<g>
						<g id="id-0.5792736874971864_00000104693596264877549080000015823052312899527074_">
							<g>
								<path class="st10" d="M33.9-23.2c0-2-1.3-3.7-3-4.4c-0.7-2.2-2.5-4-4.8-4.5c-0.5-3.1-3.2-5.4-6.4-5.4
									c-2.9,0-5.4,1.9-6.3,4.6c-0.8-0.3-1.6-0.5-2.5-0.5c-0.6,0-1.2,0.1-1.8,0.3c-1.1-2-3.3-3.4-5.8-3.4c-0.8,0-1.5,0.1-2.2,0.4
									c-1-2.2-3.3-3.8-5.9-3.8c-3.5,0-6.3,2.7-6.5,6.1c-0.9-0.4-1.9-0.7-2.9-0.7c-0.6,0-1.1,0.1-1.6,0.2c-1.2-1.4-3-2.3-4.9-2.3
									c-3.6,0-6.6,2.9-6.6,6.6c0,0.3,0,0.7,0.1,1c-1.4,0-2.7,0.5-3.8,1.3c-1.6,1.2-2.7,3.1-2.7,5.3s1,4.1,2.7,5.3
									c0.7,0.5,1.6,0.9,2.5,1.1l13.4,0L19-16l11.6,0c0.4-0.8,0.7-1.8,0.8-2.8C32.7-19.6,33.9-21.3,33.9-23.2z"/>
								<path class="st11" d="M-7.4-20.6c-1.9-1.9-1.8-5.5,0.2-7.3c2-1.8,5.6-1.5,7.3,0.6c1.2,1.5,1.1,4.1-0.3,5.5"/>
								<path class="st11" d="M1-25c0.9-1.5,2.8-2.2,4.5-1.7c1.6,0.5,2.9,2.2,2.8,3.9"/>
								<path class="st10" d="M26-32.1c-0.9,0-7.3-0.5-7.2,6"/>
							</g>
							<g>
								<path class="st10" d="M-13.4,40l-7,0c-1.5,0-2.7-1.1-2.9-2.6l-5.5-53.6l11.9,0L-13.4,40z"/>
								<polygon class="st10" points="-3.8,40 -13.4,40 -16.8,-16.2 -5,-16.2 								"/>
								<polygon class="st10" points="5.8,40 -3.8,40 -5,-16.2 6.9,-16.2 								"/>
								<polygon class="st10" points="15.3,40 5.8,40 6.9,-16.2 18.8,-16.2 								"/>
								<path class="st10" d="M22.3,40l-7,0l3.4-56.2l11.9,0l-5.5,53.6C25,38.9,23.8,40,22.3,40z"/>
								<path class="st10" d="M6.9,16.7l-12,0c-2.8,0-5-2.2-5-5l0-4.5c0-2.8,2.2-5,5-5l12,0c2.8,0,5,2.2,5,5l0,4.5
									C11.9,14.5,9.7,16.7,6.9,16.7z"/>
							</g>
						</g>
					</g>
				</g>
			</g>
		</g>
	</g>
	<g>
		<g transform="translate(128,128)">
			<g transform="matrix(0.7381 -0.6747 0.6747 0.7381 -85.9069 63.1885) translate(38.434,142.243) scale(0.607688888888889)">
				<g transform="scale(0.9)">
					<g>
						<g id="id-0.5792736874971864_00000164502257529365273340000016259736065441984420_">
							<g>
								<path class="st10" d="M33.9-23.2c0-2-1.3-3.7-3-4.4c-0.7-2.2-2.5-4-4.8-4.5c-0.5-3.1-3.2-5.4-6.4-5.4
									c-2.9,0-5.4,1.9-6.3,4.6c-0.8-0.3-1.6-0.5-2.5-0.5c-0.6,0-1.2,0.1-1.8,0.3c-1.1-2-3.3-3.4-5.8-3.4c-0.8,0-1.5,0.1-2.2,0.4
									c-1-2.2-3.3-3.8-5.9-3.8c-3.5,0-6.3,2.7-6.5,6.1c-0.9-0.4-1.9-0.7-2.9-0.7c-0.6,0-1.1,0.1-1.6,0.2c-1.2-1.4-3-2.3-4.9-2.3
									c-3.6,0-6.6,2.9-6.6,6.6c0,0.3,0,0.7,0.1,1c-1.4,0-2.7,0.5-3.8,1.3c-1.6,1.2-2.7,3.1-2.7,5.3c0,2.2,1,4.1,2.7,5.3
									c0.7,0.5,1.6,0.9,2.5,1.1l13.4,0L19-16l11.6,0c0.4-0.8,0.7-1.8,0.8-2.8C32.7-19.6,33.9-21.3,33.9-23.2z"/>
								<path class="st11" d="M-7.4-20.6c-1.9-1.9-1.8-5.5,0.2-7.3c2-1.8,5.6-1.5,7.3,0.6c1.2,1.5,1.1,4.1-0.3,5.5"/>
								<path class="st11" d="M1-25c0.9-1.5,2.8-2.2,4.5-1.7c1.6,0.5,2.9,2.2,2.8,3.9"/>
								<path class="st10" d="M26-32.1c-0.9,0-7.3-0.5-7.2,6"/>
							</g>
							<g>
								<path class="st10" d="M-13.4,40l-7,0c-1.5,0-2.7-1.1-2.9-2.6l-5.5-53.6l11.9,0L-13.4,40z"/>
								<polygon class="st10" points="-3.8,40 -13.4,40 -16.8,-16.2 -5,-16.2 								"/>
								<polygon class="st10" points="5.8,40 -3.8,40 -5,-16.2 6.9,-16.2 								"/>
								<polygon class="st10" points="15.3,40 5.8,40 6.9,-16.2 18.8,-16.2 								"/>
								<path class="st10" d="M22.3,40l-7,0l3.4-56.2l11.9,0l-5.5,53.6C25,38.9,23.8,40,22.3,40z"/>
								<path class="st10" d="M6.9,16.7l-12,0c-2.8,0-5-2.2-5-5l0-4.5c0-2.8,2.2-5,5-5l12,0c2.8,0,5,2.2,5,5l0,4.5
									C11.9,14.5,9.7,16.7,6.9,16.7z"/>
							</g>
						</g>
					</g>
				</g>
			</g>
		</g>
	</g>
</g>
<path class="st0" d="z"/>
</svg>
